# xmcd
#
# Track frame offsets:
# 150
# 12697
# 26117
# 47160
# 59362
# 73495
# 85100
# 97113
# 110239
# 122334
# 135261
# 146720
# 160257
# 172172
# 183071
#
# Disc length: 2589 seconds
#
#
# Revision: 0
# Processed by: cddbd v1.5.2PL0 Copyright (c) Steve Scherf et al.
# Submitted via: FreeRIP 2.60 
#
DISCID=dc0a1b0f
DTITLE=Beauty of Irish Bagpipes - Various
DYEAR=2006
DGENRE=Folk
TTITLE0=The Fields of Athenry
TTITLE1=As I Roved Out
TTITLE2=Danny Boy
TTITLE3=Star of the County Down
TTITLE4=Sally Gardens
TTITLE5=Shanagolden
TTITLE6=Paddy's Green Shamrock Shore
TTITLE7=Fear an Bhata
TTITLE8=Come back Paddy Reilly
TTITLE9=Pat Murphy's Meadow
TTITLE10=The Green Fields of America
TTITLE11=The Green Hills of Clare
TTITLE12=Lough Sheelin's Side
TTITLE13=She Moves through the Fair
TTITLE14=The Blarney Roses
EXTD=Uillean Pipes, the Irish version of the bagpipe
EXTT0=
EXTT1=
EXTT2=
EXTT3=
EXTT4=
EXTT5=
EXTT6=
EXTT7=
EXTT8=
EXTT9=
EXTT10=
EXTT11=
EXTT12=
EXTT13=
EXTT14=
PLAYORDER=
